<?xml version="1.0" standalone="no"?><!DOCTYPE svg PUBLIC "-//W3C//DTD SVG 1.1//EN" "http://www.w3.org/Graphics/SVG/1.1/DTD/svg11.dtd"><svg t="1606211037085" class="icon" viewBox="0 0 1063 1024" version="1.1" xmlns="http://www.w3.org/2000/svg" p-id="7089" xmlns:xlink="http://www.w3.org/1999/xlink" width="66.4375" height="64"><defs><style type="text/css"></style></defs><path d="M595.639846 808.663475c-60.629498 0-117.582085 4.606023-167.06224 12.691274-34.199228-10.872587-76.305792-17.297297-121.852046-17.297297-114.399382 0-207.152432 40.465792-207.152433 90.400617 0 49.934826 92.75305 90.400618 207.152433 90.400618 16.882162 0 33.289884-0.889575 48.985946-2.550116 62.013282 17.712432 146.621776 28.604788 239.92834 28.604788 190.15166 0 344.285405-45.269498 344.285405-101.134826 0-55.84556-154.133745-101.115058-344.285405-101.115058z" fill="#4F4849" opacity=".05" p-id="7090"></path><path d="M983.04 273.178687c-3.419923 0-6.938687 0.316293-10.496988 0.968649l-8.57946 1.54193-3.736216-7.867799c-6.859614-14.509961-20.025328-23.880154-33.527104-23.880154-20.59861 0-43.688031 12.058687-45.704402 38.548262-0.850039 11.18888 3.795521 23.741776 12.137761 32.736371 7.215444 7.788726 16.30888 12.078456 25.6 12.078456 1.719846 0 3.597838-0.11861 5.890965-0.355831l8.717838-0.929112 3.123398 8.184093c5.614208 14.707645 19.570656 29.553668 38.054054 29.553668 31.866564 0 48.037066-21.705637 49.578996-41.889112 0.929112-12.157529-4.111815-25.777915-13.165715-35.543475-7.848031-8.480618-17.751969-13.145946-27.893127-13.145946z" fill="#FFFFFF" p-id="7091"></path><path d="M1027.637375 270.846023c-12.216834-13.185483-28.051274-20.440463-44.577607-20.440463-2.075676 0-4.17112 0.079073-6.286332 0.256988-11.445869-18.167104-30.344402-29.514131-50.033668-29.514131-37.006332 0-65.769266 25.066255-68.418224 59.581776-1.344247 17.574054 5.436293 36.235367 18.127568 49.934826 11.564479 12.473822 26.54888 19.353205 42.225174 19.372973 11.465637 22.101004 33.032896 36.452819 55.865328 36.452819 39.101776 0 69.505483-26.450039 72.292818-62.922626 1.383784-18.522934-5.792124-38.231969-19.195057-52.722162z m-3.538533 51.022085c-1.541931 20.163707-17.712432 41.889112-49.578996 41.889112-18.483398 0-32.439846-14.846023-38.054054-29.553668l-3.123398-8.184093-8.717838 0.929112c-2.293127 0.23722-4.17112 0.35583-5.890965 0.355831-9.29112 0-18.364788-4.28973-25.6-12.078456-8.342239-8.994595-12.987799-21.54749-12.137761-32.736371 2.016371-26.489575 25.105792-38.548263 45.704402-38.548262 13.501776 0 26.66749 9.370193 33.527104 23.880154l3.736216 7.867799 8.57946-1.54193c3.538533-0.632587 7.077066-0.968649 10.496988-0.968649 10.12139 0 20.025328 4.665328 27.893127 13.145946 9.0539 9.76556 14.094826 23.385946 13.165715 35.543475z" fill="#4F4849" p-id="7092"></path><path d="M947.496525 476.298378l12.948263-8.144556c17.633359-11.109807 28.229189-28.743166 29.810656-49.677837 1.364015-17.850811-5.989807-37.777297-19.195058-52.030271-11.604015-12.513359-26.31166-19.41251-41.414672-19.412509l-0.94888 0.019768-11.505174 0.098842 0.039537-11.505174c0.039537-13.185483-4.803707-26.351197-13.284324-36.255135l-11.821468-10.319074c-7.788726-5.00139-16.07166-7.848031-25.283706-8.698069l-15.636757 0.850039c-2.589653 0.533745-5.139768 1.265174-7.768957 2.194285l-12.078456 4.309498-2.846641-12.49359c-6.325869-27.833822-31.016525-57.427027-64.266873-57.427027-26.924479 0-51.397683 11.485405-65.472741 30.700231l-11.129575 15.201854-8.282935-16.921699c-11.386564-23.287104-33.072432-38.330811-55.232741-38.330811-39.378533 0-69.881081 24.670888-74.190579 59.996911l-1.205869 9.943475-10.022548 0.059305c-52.26749 0.316293-105.404788 32.004942-145.831042 59.581776-24.492973 16.704247-45.585792 40.149498-59.344556 66.026255-8.441081 15.873977-34.851583 71.007876-19.926487 114.241235l3.558301 10.279537-10.101621 4.012973c-21.626564 8.599228-35.00973 26.410502-36.729576 48.867336-1.1861 15.676293 5.278147 33.191042 16.882162 45.72417 10.160927 10.971429 23.030116 17.020541 36.235367 17.02054 2.945483 0 6.108417-0.217452 9.666718-0.672123l16.269344-2.075676-3.755984 15.972819c-0.790734 3.360618-1.265174 6.3061-1.482626 9.034131-1.1861 15.636757 3.993205 31.372355 14.233205 43.272896l12.651737 11.050502c8.401544 5.416525 17.336834 8.480618 27.300077 9.389961l16.743784-0.909344c4.52695-0.929112 8.93529-2.372201 13.106409-4.289729l11.900541-5.436294 3.736216 12.533128c6.444479 21.587027 26.331429 43.431042 51.872124 43.431042 22.160309 0 42.363552-9.429498 54.046641-25.24417l7.334054-9.943475 20.59861 17.98919c8.994595 5.792124 18.602008 9.034131 29.336216 9.903938l1.680309 0.256988 16.882162-0.909343c11.109807-2.273359 20.697452-7.017761 29.29668-14.490194 7.294517-6.42471 13.106409-14.786718 16.763552-24.137142l6.820077-17.396139 12.335444 14.015753c1.680309 1.897761 3.419923 3.69668 5.199073 5.297915l0.47444 0.454671c3.281544 3.340849 6.938687 6.365405 10.872587 8.994595 11.169112 7.432896 24.690656 11.524942 38.073823 11.524942 4.17112 0 8.282934-0.395367 12.236602-1.1861 11.287722-2.253591 26.627954-8.441081 32.795676-15.458842 4.28973-4.922317 8.599228-9.864402 12.928494-14.806487a68.971737 68.971737 0 0 0 7.156139-14.608803l4.072278-11.66332 11.287722 5.00139c6.661931 2.945483 13.580849 4.447876 20.59861 4.447876 45.941622 0 69.248494-31.471197 71.482316-60.708571 0.751197-9.76556-1.087259-20.223012-5.317683-30.186255l-6.325869-14.944865 23.385946-1.245405c11.347027-2.312896 21.132355-7.156139 29.88973-14.786718 12.295907-10.83305 20.104402-26.54888 21.369575-43.055444 1.284942-16.78332-4.28973-33.685251-15.300695-46.475367l-18.167104-15.854209z" fill="#FFFFFF" p-id="7093"></path><path d="M1012.949498 420.19583c1.858224-24.315058-7.571274-50.211583-25.204633-69.248494-13.561081-14.628571-30.502548-23.682471-48.491738-26.07444a77.891212 77.891212 0 0 0-18.720617-41.098379l-14.64834-12.928494-0.632587-0.415135c-11.287722-7.432896-23.860386-11.762162-37.322625-12.849421l-0.770966-0.059305-18.799691 1.027954-0.770965 0.158147c-0.079073 0.019768-0.138378 0.019768-0.197683 0.039536-5.495598-15.439073-14.747181-29.573436-26.707028-40.663475-16.07166-14.88556-36.116757-23.089421-56.43861-23.089421-28.051274 0-54.204788 10.081853-72.806795 27.576834C675.049266 199.462548 650.378378 185.62471 624.106255 185.62471c-47.661467 0-85.438764 28.466409-95.105483 70.355522-55.054826 3.676911-108.23166 35.405097-148.993977 63.199382-27.477992 18.740386-51.140695 45.071815-66.619305 74.131274-11.445869 21.488185-35.424865 74.388263-24.196448 122.464865-24.196448 13.066873-39.516911 36.334208-41.612355 63.911042-1.680309 22.120772 6.879382 45.645097 22.891738 62.922626 13.995985 15.103012 31.965405 23.682471 50.824401 24.275521-1.027954 21.211429 6.365405 42.38332 20.460232 58.375907l15.47861 13.640155 0.652355 0.415135c11.900541 7.848031 25.145328 12.394749 39.338996 13.541313l0.770966 0.059305 19.886949-1.087259 0.770966-0.138378c2.550116-0.494208 5.080463-1.107027 7.571274-1.838456 13.066873 28.960618 40.228571 48.333591 69.446177 48.333591 24.868571 0 48.076602-9.251583 64.286641-25.184865l3.894363 3.400154 0.652355 0.415136c12.098224 7.966641 25.520927 12.651737 39.951815 13.936679l2.589653 0.513977 21.330038-1.166332 0.770965-0.158147c15.24139-2.945483 28.901313-9.607413 40.703012-19.867181 5.95027-5.23861 11.149344-11.366795 15.439073-18.147336 2.945483 2.569884 6.088649 4.981622 9.370193 7.175907 14.88556 9.903938 32.914286 15.36 50.705792 15.36 5.653745 0 11.267954-0.553514 16.704247-1.640772 11.465637-2.273359 33.922471-9.64695 45.467182-22.792896l13.462239-15.419305 0.513977-0.573282 0.434903-0.652355c2.075676-3.143166 3.953668-6.404942 5.614209-9.726023 6.18749 1.680309 12.513359 2.510579 18.898533 2.510579 50.96278 0 90.578533-34.377143 94.17637-81.742085 0.672124-8.737606-0.138378-17.791506-2.352432-26.726795 13.482008-3.400154 25.659305-9.785328 36.294672-19.05668 16.763552-14.76695 27.359382-36.07722 29.059459-58.435212 1.680309-22.120772-5.376988-44.379923-19.471815-61.538842 16.921699-14.747181 27.003552-35.108571 28.782703-58.474749z m-32.02471 118.372819c-1.265174 16.506564-9.073668 32.202625-21.369576 43.055444-8.777143 7.630579-18.562471 12.473822-29.889729 14.786718l-23.385946 1.245405 6.325868 14.944865c4.230425 9.983012 6.06888 20.420695 5.317684 30.186255-2.233822 29.237375-25.540695 60.708571-71.482317 60.708571-6.997992 0-13.93668-1.502394-20.59861-4.447876l-11.287722-5.00139-4.072278 11.66332a68.971737 68.971737 0 0 1-7.156139 14.608803c-4.329266 4.942085-8.638764 9.88417-12.928494 14.806487-6.167722 7.037529-21.507954 13.205251-32.795676 15.458842-3.953668 0.790734-8.085251 1.1861-12.236602 1.1861-13.363398 0-26.90471-4.111815-38.073822-11.524942a70.120278 70.120278 0 0 1-10.872587-8.994595l-0.47444-0.454671c-1.779151-1.601236-3.518764-3.400154-5.199074-5.297916l-12.335444-14.015752-6.820077 17.396139c-3.657143 9.350425-9.488803 17.712432-16.763552 24.137142-8.599228 7.472432-18.186873 12.216834-29.29668 14.490194l-16.882162 0.909343-1.680309-0.256988c-10.734208-0.869807-20.321853-4.111815-29.336216-9.903939l-20.59861-17.989189-7.334054 9.943475c-11.66332 15.794903-31.866564 25.24417-54.046641 25.24417-25.540695 0-45.427645-21.844015-51.872124-43.431042l-3.736216-12.533128-11.90054 5.436294a61.281853 61.281853 0 0 1-13.10641 4.289729l-16.743783 0.909344c-9.943475-0.909344-18.878764-3.993205-27.300078-9.389961l-12.651737-11.050502c-10.24-11.920309-15.439073-27.655907-14.233205-43.272896 0.217452-2.728031 0.691892-5.673514 1.482626-9.034131l3.755984-15.972819-16.269343 2.075676c-3.578069 0.454672-6.741004 0.672124-9.666718 0.672123-13.205251 0-26.07444-6.049112-36.235367-17.02054-11.604015-12.533127-18.088031-30.047876-16.882162-45.72417 1.719846-22.476602 15.103012-40.287876 36.729575-48.867336l10.101622-4.012973-3.558302-10.279537c-14.944865-43.233359 11.465637-98.367259 19.926487-114.241235 13.778533-25.876757 34.851583-49.322008 59.344556-66.026255 40.446023-27.576834 93.563552-59.265483 145.831042-59.581776l10.022549-0.059305 1.205868-9.943475c4.309498-35.326023 34.812046-59.996911 74.190579-59.996911 22.160309 0 43.846178 15.043707 55.232742 38.330811l8.282934 16.921698 11.129575-15.201853c14.075058-19.214826 38.548263-30.700232 65.472742-30.700231 33.270116 0 57.941004 29.593205 64.266872 57.427027l2.846641 12.49359 12.078456-4.309498c2.629189-0.94888 5.179305-1.660541 7.768957-2.194285l15.636757-0.850039c9.212046 0.850039 17.494981 3.69668 25.283707 8.698069l11.821467 10.319074c8.480618 9.903938 13.323861 23.069653 13.284324 36.255135l-0.039536 11.505174 11.505173-0.098842 0.948881-0.019768c15.103012 0 29.810656 6.899151 41.414671 19.412509 13.205251 14.252973 20.559073 34.199228 19.195058 52.030271-1.601236 20.934672-12.177297 38.568031-29.810656 49.677837l-12.948263 8.144556 18.1078 15.814672c11.07027 12.829653 16.644942 29.731583 15.36 46.514904z" fill="#4F4849" p-id="7094"></path><path d="M393.943475 740.838301c-8.243398 0-15.577452-3.518764-21.389344-8.974826-3.9339 2.747799-6.661931 7.116602-6.997992 12.276139l-8.401544 132.250193c-0.573282 8.955058 6.227027 16.684479 15.201853 17.257761 0.35583 0.019768 0.691892 0.039537 1.047722 0.039536 8.500386 0 15.656525-6.622394 16.210038-15.221621l8.401545-132.250193c0.11861-1.897761-0.158147-3.736216-0.652355-5.475831-1.146564 0.039537-2.273359 0.098842-3.419923 0.098842zM446.467954 758.35305c-5.59444 2.431506-9.64695 7.828263-9.805097 14.332047l-3.874594 164.274903c-0.217452 8.974826 6.899151 15.854208 15.873976 15.854208h0.395367c8.796911 0 16.032124-6.286332 16.249575-15.142548l3.69668-156.367567c-10.299305-3.578069-18.364788-12.552896-22.535907-22.951043zM748.607259 758.965869c-5.653745 1.996602-11.781931 3.004788-18.147336 3.004787-3.380386 0-6.227027-0.652355-9.251583-1.719845-1.225637 2.293127-1.640772 4.88278-1.640772 7.670116v78.045405c0 8.974826 6.839846 16.269344 15.814671 16.269344 8.994595 0 15.814672-7.274749 15.814672-16.269344v-78.045405c0-3.301313-0.889575-6.385174-2.589652-8.955058zM823.529266 903.353822l-11.643552-154.529112c-0.177915-2.372201-0.889575-4.546718-1.957065-6.503783-7.689884 7.472432-18.562471 14.707645-30.24556 15.300695l11.406332 148.223011c0.652355 8.520154 7.788726 15.00417 16.19027 15.00417 0.415135 0 0.850039 0 1.265174-0.039537 8.955058-0.691892 15.676293-8.500386 14.984401-17.455444z" fill="#4F4849" p-id="7095"></path><path d="M596.114286 307.358147C559.918456 215.474903 534.357992 132.625792 368.383012 90.835521c-95.342703-23.998764-178.84417-1.146564-241.944711 35.978379C63.317992 163.938842-9.88417 223.579923 29.553668 287.174672c18.997375 30.640927 52.821004 29.375753 87.75166 15.735598-16.328649 54.975753-15.261158 116.909961 11.920309 166.192433 17.020541 30.878147 45.546255 54.580386 79.271043 65.235521 33.784093 10.694672 77.768649 12.829653 104.515212 3.439691 63.416834-22.278919 92.337915-53.967568 124.283552-104.495444 9.330656-14.747181 16.704247-30.463012 22.614981-46.752124 19.64973 46.238147 46.218378 86.20973 80.042007 89.965715 83.521236 9.310888 81.544402-104.712896 56.161854-169.137915z" fill="#4F4849" p-id="7096"></path><path d="M212.707336 185.980541c-40.090193 0-75.673205 25.659305-78.875676 67.825173-2.866409 37.678456 27.754749 78.875676 67.825174 78.875676 40.090193 0 75.673205-25.659305 78.875676-67.825174 2.886178-37.678456-27.754749-78.875676-67.825174-78.875675z" fill="#FFFFFF" p-id="7097"></path><path d="M199.620695 241.509807c-15.814672 0-29.869961 10.12139-31.135135 26.766332-0.197683 2.569884 0.019768 5.199073 0.573282 7.749189 5.811892-4.76417 13.659923-7.136371 21.923089-7.13637 12.790116 0 22.456834 11.959846 24.473204 23.978996 6.088649-4.625792 10.279537-11.524942 10.95166-20.24278 1.107027-14.846023-10.971429-31.115367-26.7861-31.115367z" fill="#4F4849" p-id="7098"></path><path d="M385.621004 229.668571c-42.086795 0-79.429189 26.944247-82.809575 71.20556-3.024556 39.556448 29.138533 82.809575 71.205559 82.809576 42.086795 0 79.429189-26.944247 82.809576-71.20556 3.004788-39.576216-29.138533-82.809575-71.20556-82.809576z" fill="#FFFFFF" p-id="7099"></path><path d="M379.59166 281.916293c-18.621776 2.668726-33.428263 16.961236-32.103784 36.769112 0.177915 2.668726 0.751197 5.317683 1.601236 7.887568 6.128185-7.689884 15.775135-12.454054 26.469807-13.995985 15.399537-2.214054 29.098996 10.59583 33.507336 24.749962 5.060695-6.18749 7.927104-14.134363 7.314286-23.287104-1.205869-17.692664-18.186873-34.792278-36.788881-32.123553z" fill="#4F4849" p-id="7100"></path><path d="M323.667027 36.927259c-6.503784 0-12.730811 0.375598-18.503166 1.146563-20.677683 2.708263-50.468571 11.742394-66.401853 28.248958-5.376988 5.574672-11.959846 14.430888-12.750579 24.947645-0.71166 9.370193 2.352432 18.819459 8.460849 25.995367l8.045714 7.01776c4.961853 3.143166 10.220232 4.961853 16.051892 5.535135l11.030734-0.691892 11.465637-2.530347 2.154749 11.54471c3.261776 17.415907 18.285714 35.444633 37.777297 35.444634 15.458842 0 29.692046-6.404942 38.093591-17.139151l11.228417-14.351815 7.986409 16.387954c5.23861 10.773745 14.668108 19.17529 25.83722 23.010347 4.625792 1.601236 9.488803 2.411737 14.470425 2.411738 11.090039 0 21.705637-3.973436 29.88973-11.18888 6.385174-5.693282 10.536525-11.801699 12.6122-18.681082 8.559691-28.169884-7.037529-57.308417-24.473204-75.198764-30.12695-30.897915-78.10471-41.90888-112.976062-41.90888z" fill="#FFFFFF" p-id="7101"></path><path d="M452.951969 62.962162c-35.069035-35.978378-89.768031-48.788263-129.265174-48.788262-7.492201 0-14.727413 0.454672-21.468417 1.324478-25.48139 3.340849-59.838764 14.29251-79.824556 35.029498-11.4261 11.861004-18.028726 25.343012-19.056679 39.022703-1.205869 15.696062 4.092046 31.471197 14.52973 43.312433l10.892355 9.646949 0.652355 0.434904c8.500386 5.59444 17.949653 8.856216 28.090811 9.686486l0.770965 0.079074 5.297915-0.256989c8.915521 25.679073 32.14332 44.063629 57.486332 44.06363 17.079846 0 32.854981-5.218842 45.091583-14.826255 7.986409 9.864402 18.621776 17.672896 30.621158 21.804479 7.017761 2.411737 14.371583 4.092046 21.883553 4.092046 16.644942 0 32.597992-6.42471 44.992741-17.336834 9.52834-8.460849 16.012355-18.700849 19.313668-29.553668 11.386564-37.678456-8.025946-75.198764-30.00834-97.734672z m8.184093 91.09251c-2.095444 6.879382-6.227027 12.987799-12.612201 18.681081-8.184093 7.215444-18.799691 11.18888-29.88973 11.18888-4.961853 0-9.844633-0.810502-14.470424-2.411737-11.169112-3.854826-20.59861-12.236602-25.837221-23.010348l-7.986409-16.387953-11.228417 14.351814c-8.401544 10.734208-22.634749 17.139151-38.093591 17.139151-19.491583 0-34.515521-18.028726-37.777297-35.444633l-2.154749-11.544711-11.465637 2.530348-11.030733 0.691892c-5.83166-0.573282-11.109807-2.391969-16.051892-5.535136l-8.045715-7.01776c-6.088649-7.195676-9.17251-16.625174-8.460849-25.995367 0.810502-10.516757 7.373591-19.372973 12.750579-24.947645 15.933282-16.526332 45.72417-25.540695 66.401853-28.248957 5.772355-0.751197 11.999382-1.146564 18.503166-1.146564 34.851583 0 82.849112 11.010965 112.976062 41.90888 17.415907 17.890347 33.013127 47.02888 24.473205 75.198765z" fill="#4F4849" p-id="7102"></path><path d="M249.654363 495.018996c-2.925714 3.301313-6.385174 6.049112-9.389961 9.271351-1.680309 1.779151 0.059305 4.428108 2.332664 3.538533 4.40834-1.719846 8.421313-4.012973 12.197065-6.89915 4.032741-3.123398-1.838456-9.666718-5.139768-5.910734zM205.175598 487.961699c-1.957066-3.755985-3.064093-7.492201-3.755984-11.683089-0.23722-1.482625-2.253591-1.225637-2.471043 0.138378-0.83027 5.139768-1.047722 9.88417 2.174518 14.272742 1.660541 2.293127 5.337452-0.276757 4.052509-2.728031z" fill="#FFFFFF" opacity=".8" p-id="7103"></path></svg>